<svg width="229" height="179" viewBox="0 0 229 179" fill="none" xmlns="http://www.w3.org/2000/svg">
<path d="M5.10938 8.63477V34H10.418V26.002H15.1641C20.5078 26.002 24.2168 22.5215 24.2168 17.3184C24.2168 12.0977 20.6309 8.63477 15.4277 8.63477H5.10938ZM10.418 12.8359H14.0215C17.0625 12.8359 18.8203 14.4531 18.8203 17.3359C18.8203 20.2363 17.0449 21.8535 14.0039 21.8535H10.418V12.8359ZM27.0469 34H32.1797V8.63477H27.0469V34ZM41.2324 34.2988C43.5879 34.2988 45.9258 33.1211 46.9805 31.1172H47.0859V34H52.043V21.0449C52.043 17.248 48.8965 14.752 44.0625 14.752C39.0703 14.752 35.959 17.2656 35.7656 20.9219H40.459C40.7051 19.5332 41.918 18.584 43.834 18.584C45.7676 18.584 46.998 19.6035 46.998 21.3613V22.6094L42.252 22.8906C37.5586 23.1719 34.9219 25.1582 34.9219 28.5859C34.9219 31.9785 37.6465 34.2988 41.2324 34.2988ZM42.9199 30.5898C41.1797 30.5898 40.0195 29.7109 40.0195 28.3047C40.0195 26.9688 41.1094 26.1074 43.0254 25.9668L46.998 25.7207V27.0918C46.998 29.1309 45.1523 30.5898 42.9199 30.5898ZM57.6855 40.9785C62.4844 40.9785 64.8574 39.2383 66.457 34.4043L72.9434 15.1562H67.5293L63.5391 29.8867H63.4336L59.4258 15.1562H53.8008L60.3574 34C60.375 34.0879 60.1816 34.8262 60.1816 34.9141C59.8301 36.4082 58.8984 37.0059 57.0352 37.0059C56.8418 37.0059 55.9102 36.9883 55.7344 36.9531V40.9258C55.9102 40.9609 57.4922 40.9785 57.6855 40.9785ZM77.4785 12.6074C78.9727 12.6074 80.1504 11.4121 80.1504 9.9707C80.1504 8.51172 78.9727 7.33398 77.4785 7.33398C75.9844 7.33398 74.8066 8.51172 74.8066 9.9707C74.8066 11.4121 75.9844 12.6074 77.4785 12.6074ZM74.9297 34H80.0625V15.1562H74.9297V34ZM83.4902 34H88.623V23.1895C88.623 20.7461 90.082 19.0586 92.3848 19.0586C94.6875 19.0586 95.8477 20.4648 95.8477 22.9258V34H100.98V21.8535C100.98 17.4414 98.625 14.8047 94.4414 14.8047C91.541 14.8047 89.5547 16.1758 88.5527 18.5137H88.4473V15.1562H83.4902V34ZM112.846 41.1016C118.488 41.1016 122.25 38.2188 122.25 33.7363V15.1562H117.188V18.4434H117.1C116.115 16.2812 113.988 14.8574 111.281 14.8574C106.5 14.8574 103.547 18.5312 103.547 24.5078C103.547 30.3965 106.588 33.9473 111.193 33.9473C113.918 33.9473 116.133 32.5762 117.012 30.5723H117.117V33.877C117.117 36.0566 115.641 37.5156 112.986 37.5156C111.035 37.5156 109.559 36.6367 109.154 35.3359H104.127C104.531 38.6934 107.889 41.1016 112.846 41.1016ZM112.934 29.9922C110.385 29.9922 108.803 27.9883 108.803 24.543C108.803 21.1152 110.402 18.9707 112.934 18.9707C115.5 18.9707 117.135 21.1504 117.135 24.543C117.135 27.9531 115.5 29.9922 112.934 29.9922Z" fill="white"/>
<path d="M18.4219 99V81.0352H37.1953V69.8555H18.4219V60.1172H39.1641V48.2695H3.51562V99H18.4219ZM54.5625 99.5625C59.0625 99.5625 63.7734 97.5938 65.8125 93.7969H66.0938V99H80.1562V72.457C80.1562 64.582 72.9492 59.2031 62.1914 59.2031C50.8711 59.2031 43.8398 64.4414 43.4883 72.7383H56.3555C56.5664 70.7695 58.4648 69.1523 61.418 69.1523C64.125 69.1523 66.0938 70.5586 66.0938 73.1602V75.0586L57.5859 75.5859C47.2148 76.2188 41.4844 80.2617 41.4844 87.7148C41.4844 94.7109 47.4961 99.5625 54.5625 99.5625ZM59.9414 89.9297C57.4102 89.9297 55.6875 88.6992 55.6875 86.5898C55.6875 84.6914 57.2344 83.3906 59.9766 83.1797L66.0938 82.7578V85.2891C66.0938 88.1367 63.1406 89.9297 59.9414 89.9297ZM89.0859 51.6797V60.1875H83.9531V70.6289H89.0859V88.1719C89.0859 95.8359 93.4102 99 104.379 99C107.121 99 108.949 98.7539 110.32 98.4727V88.4883C109.477 88.6289 108.949 88.6641 107.859 88.6641C104.906 88.6641 103.5 87.3984 103.5 84.9727V70.6289H110.32V60.1875H103.5V51.6797H89.0859ZM140.695 86.4141C139.852 88.7344 137.496 90.1055 134.578 90.1055C130.711 90.1055 127.969 87.3633 127.969 83.5664V82.6523H153.703V78.75C153.703 66.8672 145.934 59.2031 133.91 59.2031C121.711 59.2031 114.082 67.1133 114.082 79.8047C114.082 92.4258 121.641 99.9844 134.367 99.9844C145.02 99.9844 152.332 94.7812 153.527 86.4141H140.695ZM134.227 69.1172C137.602 69.1172 140.027 71.3672 140.273 74.8477H128.18C128.461 71.5078 130.957 69.1172 134.227 69.1172Z" fill="white"/>
<path d="M27.8438 110.391C12.1641 110.391 2.28516 120.445 2.28516 136.652C2.28516 152.859 12.1289 162.879 27.8438 162.879C43.5234 162.879 53.4023 152.859 53.4023 136.652C53.4023 120.445 43.5234 110.391 27.8438 110.391ZM27.8438 122.273C34.0664 122.273 38.2148 127.863 38.2148 136.652C38.2148 145.406 34.1016 150.996 27.8438 150.996C21.5859 150.996 17.4727 145.406 17.4727 136.652C17.4727 127.863 21.6211 122.273 27.8438 122.273ZM58.3945 162H72.8086V140.309C72.8086 136.688 74.8828 134.051 78.293 134.051C81.9141 134.051 83.7422 136.441 83.7422 140.344V162H98.1562V137.145C98.1562 127.828 93.375 122.414 84.6562 122.414C78.75 122.414 74.707 125.367 72.7383 130.816H72.457V123.188H58.3945V162ZM103.57 162H117.984V111.27H103.57V162ZM130.711 119.496C134.543 119.496 137.566 116.438 137.566 112.781C137.566 109.125 134.543 106.066 130.711 106.066C126.879 106.066 123.855 109.125 123.855 112.781C123.855 116.438 126.879 119.496 130.711 119.496ZM123.574 162H137.988V123.188H123.574V162ZM143.402 162H157.816V140.309C157.816 136.688 159.891 134.051 163.301 134.051C166.922 134.051 168.75 136.441 168.75 140.344V162H183.164V137.145C183.164 127.828 178.383 122.414 169.664 122.414C163.758 122.414 159.715 125.367 157.746 130.816H157.465V123.188H143.402V162ZM214.031 149.414C213.188 151.734 210.832 153.105 207.914 153.105C204.047 153.105 201.305 150.363 201.305 146.566V145.652H227.039V141.75C227.039 129.867 219.27 122.203 207.246 122.203C195.047 122.203 187.418 130.113 187.418 142.805C187.418 155.426 194.977 162.984 207.703 162.984C218.355 162.984 225.668 157.781 226.863 149.414H214.031ZM207.562 132.117C210.938 132.117 213.363 134.367 213.609 137.848H201.516C201.797 134.508 204.293 132.117 207.562 132.117Z" fill="white"/>
</svg>
