<svg width="275" height="50" viewBox="0 0 275 50" fill="none" xmlns="http://www.w3.org/2000/svg" class="fate-srd-logo">
<path d="M172.949 15.9407H186.301C186.25 6.46716 178.47 0.198608 166.022 0.198608C153.8 0.198608 145.167 6.37289 145.242 15.5636C145.217 23.1047 150.788 27.2995 159.899 29.1376L165.018 30.1745C170.74 31.3528 172.698 32.6961 172.748 34.8877C172.698 37.2679 170.389 38.9411 165.922 38.9411C160.576 38.9411 157.414 36.5845 157.188 32.1541H143.937C143.987 44.267 152.721 49.6872 166.123 49.6872C179.148 49.6872 186.953 44.4084 187.003 34.8877C186.953 27.5351 182.285 22.3742 170.941 20.0883L166.725 19.2399C161.856 18.2737 159.673 16.9305 159.798 14.621C159.823 12.5 161.706 10.9447 166.022 10.9447C170.54 10.9447 172.673 12.8064 172.949 15.9407Z" fill="white"/>
<path d="M187.364 49.1216H201.318V33.191H206.137L215.172 49.1216H230.33L219.89 31.1172C225.361 28.6427 228.623 23.9531 228.623 17.2604C228.623 6.98561 220.969 0.858456 209.55 0.858456H187.364V49.1216ZM201.318 23.0105V11.3217H206.237C211.131 11.3217 214.067 13.1128 214.067 17.2604C214.067 21.3844 211.131 23.0105 206.237 23.0105H201.318Z" fill="white"/>
<path d="M249.401 49.1216C265.061 49.1216 274.999 40.0722 274.999 24.99C274.999 9.90779 265.061 0.858456 249.2 0.858456H229.624V49.1216H249.401ZM243.578 37.9984V11.9816H248.497C256.528 11.9816 260.945 14.9038 260.945 24.99C260.945 35.0763 256.528 37.9984 248.899 37.9984H243.578Z" fill="white"/>
<rect x="236.703" y="10.1712" width="25.9824" height="29.1058" fill="white"/>
<path d="M262.344 11.221H239.78C238.049 11.221 236.703 12.6312 236.703 14.2979V36.8615C236.703 38.5923 238.049 39.9384 239.78 39.9384H262.344C264.01 39.9384 265.421 38.5923 265.421 36.8615V14.2979C265.421 12.6312 264.01 11.221 262.344 11.221ZM260.292 27.3745C260.292 27.8232 259.908 28.1437 259.523 28.1437H253.626V34.0411C253.626 34.4898 253.241 34.8103 252.857 34.8103H249.267C248.818 34.8103 248.498 34.4898 248.498 34.0411V28.1437H242.6C242.152 28.1437 241.831 27.8232 241.831 27.3745V23.7849C241.831 23.4002 242.152 23.0156 242.6 23.0156H248.498V17.1183C248.498 16.7337 248.818 16.3491 249.267 16.3491H252.857C253.241 16.3491 253.626 16.7337 253.626 17.1183V23.0156H259.523C259.908 23.0156 260.292 23.4002 260.292 23.7849V27.3745Z" fill="#15598F"/>
<path d="M0 48.2631H13.9539V29.4103H33.931V18.8528H13.9539V10.5576H36.1395V0H0V48.2631Z" fill="white"/>
<path d="M46.4388 48.8287C51.4582 48.8287 55.2478 47.2262 57.5818 43.1729H57.883V48.2631H70.8329V23.4717C70.8329 16.779 64.0819 11.5945 53.0644 11.5945C41.5449 11.5945 35.873 17.2503 35.3961 23.8488H48.1454C48.4716 21.61 50.2284 20.5495 52.8636 20.5495C55.2729 20.5495 56.9795 21.5864 56.9795 23.4717V23.566C56.9795 25.6634 54.52 26.3232 48.045 26.771C40.0893 27.313 33.8903 30.3294 33.8903 38.2711C33.8903 45.4823 39.0603 48.8287 46.4388 48.8287ZM50.9562 40.6278C48.5971 40.6278 46.9407 39.5437 46.9407 37.517C46.9407 35.6553 48.3461 34.2178 51.5585 33.7465C53.7671 33.4166 55.6242 32.9924 57.0799 32.4268V35.4432C57.0799 38.7425 54.0933 40.6278 50.9562 40.6278Z" fill="white"/>
<path d="M95.4939 12.0658H88.8683V3.3935H75.0148V12.0658H70.0959V21.4922H75.0148V37.847C74.9144 45.4352 79.9087 49.2765 89.4706 48.7816C92.6078 48.6166 94.9418 48.0039 96.1966 47.6504L94.1889 38.5068C93.6618 38.6246 92.3066 38.8839 91.4784 38.8839C89.6714 38.8839 88.8683 38.1298 88.8683 36.6215V21.4922H95.4939V12.0658Z" fill="white"/>
<path d="M114.257 48.923C124.948 48.923 131.825 44.1155 133.13 36.5744H120.481C119.678 38.6246 117.394 39.7794 114.558 39.7794C110.442 39.7794 108.033 37.2343 108.033 33.7465V33.1809H133.13V30.1645C133.13 18.6407 125.601 11.5945 113.956 11.5945C102.01 11.5945 94.3803 19.0413 94.3803 30.2587C94.3803 41.971 101.909 48.923 114.257 48.923ZM108.033 26.0168C108.108 22.8826 110.869 20.7381 114.257 20.7381C117.695 20.7381 120.305 22.9061 120.381 26.0168H108.033Z" fill="white"/>
</svg>
